<svg width="200" height="129" viewBox="0 0 200 129" fill="none" xmlns="http://www.w3.org/2000/svg">
<g clip-path="url(#clip0_33_148)">
<path d="M164.74 7.55145C164.74 7.55145 161.675 6.45685 159.705 10.8355C157.734 15.2141 154.669 20.031 154.669 20.031L156.42 20.4688C156.42 20.4688 156.858 17.4035 157.953 16.9665L157.515 20.907C157.515 20.907 170.652 25.5047 176.563 20.4693L176.344 18.9366C176.344 18.9366 177.221 19.1559 177.221 20.469L177.877 19.8122C177.877 19.8122 177.22 18.4986 175.25 16.747C173.957 15.5974 173.512 13.4102 173.36 12.0428C173.245 10.9009 172.788 9.82037 172.049 8.94275C170.739 7.42517 168.353 5.81263 164.74 7.55145Z" fill="#3E3E3E"/>
<path d="M173.102 55.5088H65.8531V127.864H173.102V55.5088Z" fill="white"/>
<path d="M173.368 128.357H65.38V55.2622H173.368V128.357ZM66.1197 127.617H172.629V56.0019H66.1197V127.617Z" fill="#3F3D56"/>
<path d="M74.9788 121.825H164.101V61.4282H74.9788V121.825Z" fill="#E5E5E5"/>
<path d="M100.295 102.352C105.461 102.352 109.649 98.1641 109.649 92.9977C109.649 87.8313 105.461 83.6431 100.295 83.6431C95.1283 83.6431 90.9401 87.8313 90.9401 92.9977C90.9401 98.1641 95.1283 102.352 100.295 102.352Z" fill="#3F3D56"/>
<path d="M129.629 121.826H83.739C83.6811 121.827 83.6233 121.822 83.5663 121.812L105.271 84.2182C105.403 83.984 105.595 83.7892 105.828 83.6537C106.06 83.5182 106.324 83.4468 106.593 83.4468C106.862 83.4468 107.127 83.5182 107.359 83.6537C107.591 83.7892 107.783 83.984 107.916 84.2182L122.483 109.445L123.181 110.652L129.629 121.826Z" fill="#818185"/>
<path opacity="0.2" d="M129.629 121.825H113.961L121.653 110.652L122.207 109.847L122.484 109.445L123.181 110.652L129.629 121.825Z" fill="black"/>
<path d="M155.181 121.825H115.489L123.181 110.652L123.734 109.847L133.757 95.2883C133.934 95.0658 134.156 94.8831 134.408 94.7521C134.661 94.621 134.938 94.5445 135.222 94.5275C135.506 94.5106 135.79 94.5535 136.056 94.6535C136.323 94.7536 136.565 94.9085 136.767 95.1082C136.819 95.1651 136.867 95.2252 136.912 95.2883L155.181 121.825Z" fill="#818185"/>
<path d="M174.715 56.8353C174.947 56.5248 175.107 56.1672 175.185 55.7878C175.264 55.4085 175.258 55.0166 175.168 54.6397C175.079 54.2628 174.908 53.9101 174.667 53.6065C174.427 53.3029 174.123 53.0558 173.776 52.8824L166.98 29.7266L161.806 32.2608L170.113 54.2254C169.86 54.8267 169.836 55.5 170.046 56.1176C170.257 56.7351 170.687 57.254 171.254 57.5758C171.822 57.8976 172.487 58 173.125 57.8634C173.763 57.7269 174.329 57.361 174.715 56.8351V56.8353Z" fill="#E4B07F"/>
<path d="M168.52 33.5939L162.728 35.1618C162.563 35.2064 162.391 35.2149 162.222 35.1868C162.054 35.1588 161.894 35.0947 161.752 34.9991C161.611 34.9034 161.492 34.7785 161.403 34.6326C161.314 34.4868 161.258 34.3235 161.238 34.154L160.538 28.2132C160.312 27.368 160.432 26.4679 160.87 25.7107C161.307 24.9535 162.028 24.4012 162.873 24.1751C163.718 23.949 164.618 24.0677 165.376 24.5051C166.133 24.9425 166.686 25.6628 166.913 26.5076L169.299 31.9722C169.367 32.1287 169.401 32.298 169.398 32.4687C169.394 32.6394 169.355 32.8075 169.281 32.9614C169.207 33.1153 169.101 33.2515 168.97 33.3607C168.838 33.4699 168.685 33.5495 168.52 33.5941L168.52 33.5939Z" fill="#818185"/>
<path d="M176.229 78.8842H179.253L180.691 71.041H176.227L176.229 78.8842Z" fill="#E4B07F"/>
<path d="M175.458 77.897H181.414C181.912 77.8969 182.405 77.9951 182.866 78.1857C183.326 78.3764 183.745 78.6559 184.097 79.0083C184.449 79.3606 184.729 79.779 184.92 80.2394C185.11 80.6997 185.209 81.1932 185.209 81.6915V81.8153H175.458L175.458 77.897Z" fill="#3E3E3E"/>
<path d="M179.739 74.6791C179.704 74.6791 179.668 74.6774 179.633 74.6739L175.448 74.3693C175.279 74.3536 175.115 74.2992 174.97 74.2104C174.826 74.1216 174.703 74.0007 174.612 73.857C174.522 73.7133 174.465 73.5507 174.447 73.3817C174.429 73.2127 174.45 73.0419 174.508 72.8823L180.109 60.2999C180.149 60.1877 180.165 60.0683 180.157 59.9495C180.148 59.8306 180.115 59.7148 180.06 59.6093C180.004 59.5026 179.927 59.4087 179.833 59.3339C179.739 59.2591 179.631 59.205 179.514 59.1753C176.881 58.4869 170.124 56.6538 164.275 54.5093C161.769 53.5903 160.191 52.2627 159.584 50.5631C158.785 48.3218 159.968 46.2779 160.019 46.1921L160.058 46.125L165.562 46.6252L171.529 47.1328L184.604 54.1443C185.699 54.7367 186.532 55.7202 186.935 56.8987C187.338 58.0772 187.282 59.3643 186.779 60.5037L180.751 74.0215C180.663 74.2171 180.521 74.3832 180.342 74.4999C180.162 74.6166 179.953 74.6788 179.739 74.6791Z" fill="#3E3E3E"/>
<path d="M166.519 21.7317C169.865 21.7317 172.577 19.0196 172.577 15.674C172.577 12.3284 169.865 9.61621 166.519 9.61621C163.174 9.61621 160.462 12.3284 160.462 15.674C160.462 19.0196 163.174 21.7317 166.519 21.7317Z" fill="#E4B07F"/>
<path d="M174.502 78.6376H177.526L178.965 70.7944H174.501L174.502 78.6376Z" fill="#E4B07F"/>
<path d="M173.731 77.6504H179.687C180.185 77.6504 180.679 77.7485 181.139 77.9392C181.6 78.1298 182.018 78.4093 182.371 78.7617C182.723 79.114 183.003 79.5324 183.193 79.9928C183.384 80.4532 183.482 80.9466 183.482 81.445V81.5688H173.731L173.731 77.6504Z" fill="#3E3E3E"/>
<path d="M178.012 75.4188C177.977 75.4188 177.942 75.4171 177.906 75.4137L173.721 75.1091C173.552 75.0933 173.389 75.039 173.244 74.9501C173.099 74.8613 172.977 74.7404 172.886 74.5967C172.795 74.4531 172.738 74.2905 172.72 74.1215C172.702 73.9525 172.723 73.7816 172.782 73.6221L178.382 61.0397C178.422 60.9274 178.439 60.8081 178.43 60.6892C178.422 60.5704 178.389 60.4546 178.333 60.3491C178.278 60.2423 178.201 60.1485 178.107 60.0737C178.013 59.9988 177.904 59.9448 177.788 59.915C175.154 59.2266 168.398 57.3936 162.549 55.249C160.043 54.3301 158.465 53.0024 157.858 51.3028C157.058 49.0616 158.241 47.0177 158.292 46.9318L158.332 46.8647L163.836 47.3649L169.802 47.8725L182.877 54.884C183.973 55.4765 184.805 56.4599 185.208 57.6384C185.611 58.817 185.556 60.1041 185.052 61.2434L179.024 74.7613C178.937 74.9568 178.795 75.123 178.615 75.2396C178.436 75.3563 178.226 75.4185 178.012 75.4188Z" fill="#3E3E3E"/>
<path d="M168.388 25.1665L161.975 22.9468C161.975 22.9468 157.949 26.0396 159.883 33.7124C160.893 37.6717 160.599 41.8511 159.045 45.6301C158.858 46.0976 158.642 46.5532 158.399 46.9943C158.399 46.9943 165.551 55.6267 172.211 49.214L169.621 36.7587C169.621 36.7587 173.691 28.4962 168.388 25.1665Z" fill="#CBCBCB"/>
<path d="M183.943 55.7257C184.089 55.3672 184.155 54.9808 184.136 54.5939C184.117 54.2071 184.014 53.829 183.833 53.4865C183.652 53.144 183.398 52.8452 183.09 52.6114C182.781 52.3775 182.425 52.2142 182.046 52.1329L169.68 31.4092L165.303 35.1561L178.834 54.3487C178.739 54.9943 178.885 55.6522 179.243 56.1977C179.601 56.7432 180.146 57.1384 180.776 57.3082C181.406 57.4781 182.077 57.4108 182.66 57.1191C183.244 56.8275 183.7 56.3318 183.943 55.726V55.7257Z" fill="#E4B07F"/>
<path d="M172.137 34.7692L166.921 37.7343C166.773 37.8186 166.608 37.87 166.438 37.8849C166.268 37.8998 166.096 37.8779 165.936 37.8206C165.775 37.7634 165.628 37.6721 165.506 37.5531C165.383 37.4341 165.288 37.2901 165.226 37.131L163.064 31.553C162.633 30.7909 162.524 29.8892 162.758 29.0461C162.993 28.2031 163.553 27.4878 164.315 27.0576C165.077 26.6274 165.979 26.5175 166.822 26.7522C167.665 26.9869 168.38 27.5468 168.81 28.3089L172.485 33.0042C172.59 33.1387 172.665 33.2942 172.705 33.4603C172.745 33.6263 172.748 33.799 172.715 33.9665C172.682 34.134 172.613 34.2924 172.513 34.4309C172.414 34.5694 172.285 34.6848 172.137 34.7692H172.137Z" fill="#CBCBCB"/>
<path d="M159.613 16.8098C159.613 16.8098 162.338 13.6372 163.871 13.1994C164.79 12.9378 165.678 12.5771 166.519 12.1237C166.519 12.1237 169.563 14.951 171.972 15.1698C174.38 15.3886 172.191 9.91637 172.191 9.91637L167.812 8.82178L163.652 9.25956L160.368 11.449L159.613 16.8098Z" fill="#3E3E3E"/>
<path d="M0 55.8755C0 39.3099 13.4291 0 29.995 0C46.5608 0 59.9899 39.3099 59.9899 55.8755C59.9672 63.8157 56.797 71.4229 51.1743 77.0295C45.5517 82.6361 37.9354 85.7844 29.9951 85.7844C22.0548 85.7844 14.4385 82.6361 8.81588 77.0295C3.19322 71.4229 0.0227689 63.8157 0 55.8755Z" fill="#E5E5E5"/>
<path d="M29.995 128.85C29.9295 128.85 29.8668 128.824 29.8206 128.777C29.7743 128.731 29.7483 128.668 29.7483 128.603V25.1905C29.7483 25.1251 29.7743 25.0623 29.8206 25.0161C29.8668 24.9698 29.9295 24.9438 29.995 24.9438C30.0604 24.9438 30.1231 24.9698 30.1694 25.0161C30.2156 25.0623 30.2416 25.1251 30.2416 25.1905V128.603C30.2416 128.668 30.2156 128.731 30.1694 128.777C30.1231 128.824 30.0604 128.85 29.995 128.85Z" fill="#CCCCCC"/>
<path d="M29.995 45.155C29.9296 45.155 29.8668 45.129 29.8206 45.0828L17.9485 33.211C17.9036 33.1644 17.8788 33.1021 17.8793 33.0375C17.8799 32.9728 17.9058 32.9109 17.9515 32.8652C17.9973 32.8195 18.0591 32.7935 18.1238 32.793C18.1885 32.7924 18.2508 32.8173 18.2973 32.8622L30.1693 44.734C30.2038 44.7685 30.2273 44.8124 30.2368 44.8603C30.2463 44.9081 30.2414 44.9577 30.2228 45.0028C30.2041 45.0478 30.1725 45.0863 30.132 45.1134C30.0914 45.1405 30.0437 45.155 29.995 45.155Z" fill="#CCCCCC"/>
<path d="M29.995 65.7073C29.9462 65.7073 29.8985 65.6929 29.858 65.6658C29.8174 65.6387 29.7858 65.6001 29.7672 65.5551C29.7485 65.51 29.7436 65.4604 29.7531 65.4126C29.7626 65.3648 29.7861 65.3208 29.8206 65.2863L49.7023 45.4046C49.7248 45.3813 49.7517 45.3626 49.7814 45.3496C49.8111 45.3367 49.8431 45.3297 49.8755 45.3291C49.9079 45.3286 49.9401 45.3344 49.9703 45.3462C50.0004 45.3581 50.028 45.3758 50.0513 45.3983C50.0746 45.4209 50.0932 45.4478 50.1062 45.4775C50.1191 45.5072 50.126 45.5392 50.1265 45.5716C50.1271 45.604 50.1212 45.6362 50.1093 45.6664C50.0974 45.6965 50.0797 45.724 50.0571 45.7473L50.0511 45.7534L30.1693 65.6356C30.1231 65.6818 30.0604 65.7078 29.995 65.7078V65.7073Z" fill="#CCCCCC"/>
<path d="M199.753 128.85H16.4993C16.4339 128.85 16.3711 128.824 16.3249 128.777C16.2786 128.731 16.2526 128.668 16.2526 128.603C16.2526 128.538 16.2786 128.475 16.3249 128.429C16.3711 128.382 16.4339 128.356 16.4993 128.356H199.753C199.819 128.356 199.882 128.382 199.928 128.429C199.974 128.475 200 128.538 200 128.603C200 128.668 199.974 128.731 199.928 128.777C199.882 128.824 199.819 128.85 199.753 128.85Z" fill="#E6E6E6"/>
<path d="M38.4451 109.911C38.4451 105.667 41.8875 95.5972 46.1339 95.5972C50.3803 95.5972 53.8229 105.666 53.8229 109.911C53.8229 111.95 53.0129 113.906 51.5709 115.348C50.129 116.79 48.1733 117.6 46.134 117.6C44.0948 117.6 42.1391 116.79 40.6972 115.348C39.2552 113.906 38.4451 111.95 38.4451 109.911Z" fill="#818185"/>
<path d="M46.1339 128.603C46.1172 128.603 46.1011 128.596 46.0893 128.584C46.0774 128.572 46.0708 128.556 46.0708 128.54V102.049C46.0708 102.04 46.0724 102.032 46.0756 102.024C46.0788 102.017 46.0834 102.01 46.0893 102.004C46.0952 101.998 46.1021 101.993 46.1098 101.99C46.1175 101.987 46.1257 101.985 46.134 101.985C46.1423 101.985 46.1506 101.987 46.1582 101.99C46.1659 101.993 46.1729 101.998 46.1788 102.004C46.1846 102.01 46.1893 102.017 46.1925 102.024C46.1957 102.032 46.1973 102.04 46.1973 102.049V128.54C46.1973 128.556 46.1906 128.572 46.1788 128.584C46.167 128.596 46.1507 128.603 46.1339 128.603Z" fill="#E6E6E6"/>
<path d="M46.1339 107.163C46.1256 107.163 46.1174 107.161 46.1097 107.158C46.1021 107.155 46.0951 107.15 46.0893 107.144L43.046 104.103C43.0342 104.091 43.0277 104.075 43.0277 104.059C43.0278 104.042 43.0345 104.026 43.0463 104.014C43.0582 104.002 43.0742 103.996 43.0909 103.996C43.1076 103.996 43.1236 104.002 43.1355 104.014L46.1788 107.055C46.1876 107.064 46.1936 107.075 46.1961 107.087C46.1985 107.1 46.1973 107.112 46.1925 107.124C46.1877 107.135 46.1796 107.145 46.1692 107.152C46.1588 107.159 46.1464 107.163 46.1339 107.163Z" fill="#E6E6E6"/>
<path d="M46.1339 112.428C46.1214 112.428 46.1092 112.425 46.0988 112.418C46.0884 112.411 46.0804 112.401 46.0756 112.389C46.0708 112.378 46.0695 112.365 46.072 112.353C46.0744 112.341 46.0804 112.33 46.0893 112.321L51.1858 107.228C51.1977 107.216 51.2138 107.209 51.2305 107.209C51.2473 107.209 51.2634 107.216 51.2753 107.227C51.2871 107.239 51.2938 107.255 51.2938 107.272C51.2939 107.289 51.2872 107.305 51.2754 107.317L46.1785 112.41C46.1727 112.416 46.1657 112.421 46.1581 112.424C46.1504 112.427 46.1422 112.428 46.1339 112.428Z" fill="#E6E6E6"/>
</g>
<defs>
<clipPath id="clip0_33_148">
<rect width="200" height="128.85" fill="white"/>
</clipPath>
</defs>
</svg>
