<svg width="454" height="100" viewBox="0 0 454 100" fill="none" xmlns="http://www.w3.org/2000/svg">
<path fill-rule="evenodd" clip-rule="evenodd" d="M23.8313 51.88L52.2696 23.0935C54.2017 21.1377 56.7725 20.0623 59.5128 20.0623C62.2511 20.0623 64.8219 21.1367 66.752 23.0925L68.9677 25.3353L73.4 20.8487L71.1843 18.6059C68.0717 15.4552 63.927 13.72 59.5108 13.72C55.0966 13.721 50.9509 15.4562 47.8383 18.608L19.4 47.3934L23.8313 51.88Z" fill="white"/>
<path fill-rule="evenodd" clip-rule="evenodd" d="M61.88 32.6554L57.4267 28.1755L28.8549 56.9193C24.8426 60.9557 18.3142 60.9567 14.3029 56.9214C10.2906 52.885 10.2906 46.3166 14.3029 42.2802L38.9577 17.4789L34.5044 13L9.85067 37.8013C3.38311 44.3076 3.38311 54.8951 9.85067 61.4003C12.978 64.5464 17.1424 66.28 21.5774 66.28C26.0135 66.28 30.1799 64.5453 33.3072 61.3993L61.88 32.6554Z" fill="white"/>
<path fill-rule="evenodd" clip-rule="evenodd" d="M90.1486 38.0388C87.0222 34.8927 82.8578 33.16 78.4207 33.16C73.9847 33.161 69.8183 34.8937 66.6909 38.0408L38.12 66.7842L42.5713 71.2642L71.1442 42.5198C75.1576 38.4834 81.6849 38.4844 85.6963 42.5188C87.6365 44.4707 88.705 47.0692 88.705 49.838C88.705 52.6078 87.6365 55.2073 85.6963 57.1592L61.0424 81.961L65.4957 86.44L90.1486 61.6392C96.6172 55.1328 96.6172 44.5452 90.1486 38.0388Z" fill="white"/>
<path fill-rule="evenodd" clip-rule="evenodd" d="M76.1688 47.56L47.731 76.3465C43.7367 80.3878 37.2402 80.3898 33.2478 76.3475L31.0322 74.1047L26.6 78.5913L28.8156 80.8341C31.9282 83.9848 36.0729 85.72 40.49 85.72C44.904 85.719 49.0487 83.9838 52.1623 80.832L80.6 52.0466L76.1688 47.56Z" fill="white"/>
<path d="M198.553 70.4241C198.441 70.3121 198.233 70.1601 197.929 69.9681C197.641 69.7761 197.281 69.5921 196.849 69.4161C196.433 69.2401 195.977 69.0881 195.481 68.9601C194.985 68.8161 194.481 68.7441 193.969 68.7441C193.073 68.7441 192.393 68.9121 191.929 69.2481C191.481 69.5841 191.257 70.0561 191.257 70.6641C191.257 71.1281 191.401 71.4961 191.689 71.7681C191.977 72.0401 192.409 72.2721 192.985 72.4641C193.561 72.6561 194.281 72.8641 195.145 73.0881C196.265 73.3601 197.233 73.6961 198.049 74.0961C198.881 74.4801 199.513 74.9921 199.945 75.6321C200.393 76.2561 200.617 77.0881 200.617 78.1281C200.617 79.0401 200.449 79.8241 200.113 80.4801C199.777 81.1201 199.313 81.6401 198.721 82.0401C198.129 82.4401 197.457 82.7361 196.705 82.9281C195.953 83.1041 195.153 83.1921 194.305 83.1921C193.457 83.1921 192.609 83.1041 191.761 82.9281C190.913 82.7521 190.097 82.5041 189.313 82.1841C188.529 81.8481 187.809 81.4481 187.153 80.9841L188.617 78.1281C188.761 78.2721 189.017 78.4641 189.385 78.7041C189.753 78.9281 190.201 79.1601 190.729 79.4001C191.257 79.6241 191.833 79.8161 192.457 79.9761C193.081 80.1361 193.713 80.2161 194.353 80.2161C195.249 80.2161 195.929 80.0641 196.393 79.7601C196.857 79.4561 197.089 79.0241 197.089 78.4641C197.089 77.9521 196.905 77.5521 196.537 77.2641C196.169 76.9761 195.657 76.7281 195.001 76.5201C194.345 76.2961 193.569 76.0561 192.673 75.8001C191.601 75.4961 190.705 75.1601 189.985 74.7921C189.265 74.4081 188.729 73.9281 188.377 73.3521C188.025 72.7761 187.849 72.0561 187.849 71.1921C187.849 70.0241 188.121 69.0481 188.665 68.2641C189.225 67.4641 189.977 66.8641 190.921 66.4641C191.865 66.0481 192.913 65.8401 194.065 65.8401C194.865 65.8401 195.617 65.9281 196.321 66.1041C197.041 66.2801 197.713 66.5121 198.337 66.8001C198.961 67.0881 199.521 67.4001 200.017 67.7361L198.553 70.4241Z" fill="white"/>
<path d="M186.286 68.864H180.838V83H177.55V68.864H172.102V65.96H186.286V68.864Z" fill="white"/>
<path d="M170.96 80.096V83H159.128V65.96H170.744V68.864H162.44V72.968H169.616V75.656H162.44V80.096H170.96Z" fill="white"/>
<path d="M154.561 70.4241C154.449 70.3121 154.241 70.1601 153.937 69.9681C153.649 69.7761 153.289 69.5921 152.857 69.4161C152.441 69.2401 151.985 69.0881 151.489 68.9601C150.993 68.8161 150.489 68.7441 149.977 68.7441C149.081 68.7441 148.401 68.9121 147.937 69.2481C147.489 69.5841 147.265 70.0561 147.265 70.6641C147.265 71.1281 147.409 71.4961 147.697 71.7681C147.985 72.0401 148.417 72.2721 148.993 72.4641C149.569 72.6561 150.289 72.8641 151.153 73.0881C152.273 73.3601 153.241 73.6961 154.057 74.0961C154.889 74.4801 155.521 74.9921 155.953 75.6321C156.401 76.2561 156.625 77.0881 156.625 78.1281C156.625 79.0401 156.457 79.8241 156.121 80.4801C155.785 81.1201 155.321 81.6401 154.729 82.0401C154.137 82.4401 153.465 82.7361 152.713 82.9281C151.961 83.1041 151.161 83.1921 150.313 83.1921C149.465 83.1921 148.617 83.1041 147.769 82.9281C146.921 82.7521 146.105 82.5041 145.321 82.1841C144.537 81.8481 143.817 81.4481 143.161 80.9841L144.625 78.1281C144.769 78.2721 145.025 78.4641 145.393 78.7041C145.761 78.9281 146.209 79.1601 146.737 79.4001C147.265 79.6241 147.841 79.8161 148.465 79.9761C149.089 80.1361 149.721 80.2161 150.361 80.2161C151.257 80.2161 151.937 80.0641 152.401 79.7601C152.865 79.4561 153.097 79.0241 153.097 78.4641C153.097 77.9521 152.913 77.5521 152.545 77.2641C152.177 76.9761 151.665 76.7281 151.009 76.5201C150.353 76.2961 149.577 76.0561 148.681 75.8001C147.609 75.4961 146.713 75.1601 145.993 74.7921C145.273 74.4081 144.737 73.9281 144.385 73.3521C144.033 72.7761 143.857 72.0561 143.857 71.1921C143.857 70.0241 144.129 69.0481 144.673 68.2641C145.233 67.4641 145.985 66.8641 146.929 66.4641C147.873 66.0481 148.921 65.8401 150.073 65.8401C150.873 65.8401 151.625 65.9281 152.329 66.1041C153.049 66.2801 153.721 66.5121 154.345 66.8001C154.969 67.0881 155.529 67.4001 156.025 67.7361L154.561 70.4241Z" fill="white"/>
<path d="M139.842 70.4241C139.73 70.3121 139.522 70.1601 139.218 69.9681C138.93 69.7761 138.57 69.5921 138.138 69.4161C137.722 69.2401 137.266 69.0881 136.77 68.9601C136.274 68.8161 135.77 68.7441 135.258 68.7441C134.362 68.7441 133.682 68.9121 133.218 69.2481C132.77 69.5841 132.546 70.0561 132.546 70.6641C132.546 71.1281 132.69 71.4961 132.978 71.7681C133.266 72.0401 133.698 72.2721 134.274 72.4641C134.85 72.6561 135.57 72.8641 136.434 73.0881C137.554 73.3601 138.522 73.6961 139.338 74.0961C140.17 74.4801 140.802 74.9921 141.234 75.6321C141.682 76.2561 141.906 77.0881 141.906 78.1281C141.906 79.0401 141.738 79.8241 141.402 80.4801C141.066 81.1201 140.602 81.6401 140.01 82.0401C139.418 82.4401 138.746 82.7361 137.994 82.9281C137.242 83.1041 136.442 83.1921 135.594 83.1921C134.746 83.1921 133.898 83.1041 133.05 82.9281C132.202 82.7521 131.386 82.5041 130.602 82.1841C129.818 81.8481 129.098 81.4481 128.442 80.9841L129.906 78.1281C130.05 78.2721 130.306 78.4641 130.674 78.7041C131.042 78.9281 131.49 79.1601 132.018 79.4001C132.546 79.6241 133.122 79.8161 133.746 79.9761C134.37 80.1361 135.002 80.2161 135.642 80.2161C136.538 80.2161 137.218 80.0641 137.682 79.7601C138.146 79.4561 138.378 79.0241 138.378 78.4641C138.378 77.9521 138.194 77.5521 137.826 77.2641C137.458 76.9761 136.946 76.7281 136.29 76.5201C135.634 76.2961 134.858 76.0561 133.962 75.8001C132.89 75.4961 131.994 75.1601 131.274 74.7921C130.554 74.4081 130.018 73.9281 129.666 73.3521C129.314 72.7761 129.138 72.0561 129.138 71.1921C129.138 70.0241 129.41 69.0481 129.954 68.2641C130.514 67.4641 131.266 66.8641 132.21 66.4641C133.154 66.0481 134.202 65.8401 135.354 65.8401C136.154 65.8401 136.906 65.9281 137.61 66.1041C138.33 66.2801 139.002 66.5121 139.626 66.8001C140.25 67.0881 140.81 67.4001 141.306 67.7361L139.842 70.4241Z" fill="white"/>
<path d="M118.408 65.96H121.768L128.032 83H124.624L123.04 78.752H117.088L115.528 83H112.12L118.408 65.96ZM122.44 76.424L120.088 69.392L117.64 76.424H122.44Z" fill="white"/>
<path d="M453.232 49.1919V54.9999H429.568V20.9199H452.8V26.7279H436.192V34.9359H450.544V40.3119H436.192V49.1919H453.232Z" fill="white"/>
<path d="M394.597 37.72C394.597 35.64 394.965 33.608 395.701 31.624C396.469 29.608 397.573 27.784 399.013 26.152C400.453 24.488 402.213 23.176 404.293 22.216C406.373 21.224 408.741 20.728 411.397 20.728C414.533 20.728 417.237 21.416 419.509 22.792C421.813 24.168 423.525 25.96 424.645 28.168L419.557 31.672C418.981 30.392 418.229 29.384 417.301 28.648C416.373 27.88 415.381 27.352 414.325 27.064C413.269 26.744 412.229 26.584 411.205 26.584C409.541 26.584 408.085 26.92 406.837 27.592C405.621 28.264 404.597 29.144 403.765 30.232C402.933 31.32 402.309 32.536 401.893 33.88C401.509 35.224 401.317 36.568 401.317 37.912C401.317 39.416 401.557 40.872 402.037 42.28C402.517 43.656 403.189 44.888 404.053 45.976C404.949 47.032 406.005 47.88 407.221 48.52C408.469 49.128 409.829 49.432 411.301 49.432C412.357 49.432 413.429 49.256 414.517 48.904C415.605 48.552 416.613 47.992 417.541 47.224C418.469 46.456 419.189 45.464 419.701 44.248L425.125 47.368C424.453 49.064 423.349 50.504 421.813 51.688C420.309 52.872 418.613 53.768 416.725 54.376C414.837 54.984 412.965 55.288 411.109 55.288C408.677 55.288 406.453 54.792 404.437 53.8C402.421 52.776 400.677 51.432 399.205 49.768C397.765 48.072 396.629 46.184 395.797 44.104C394.997 41.992 394.597 39.864 394.597 37.72Z" fill="white"/>
<path d="M374.988 20.9199H381.708L394.236 54.9999H387.42L384.252 46.5039H372.348L369.228 54.9999H362.412L374.988 20.9199ZM383.052 41.8479L378.348 27.7839L373.452 41.8479H383.052Z" fill="white"/>
<path d="M338.302 54.9999V20.9199H352.75C354.318 20.9199 355.758 21.2399 357.07 21.8799C358.382 22.5199 359.518 23.3839 360.478 24.4719C361.47 25.5599 362.238 26.7759 362.782 28.1199C363.326 29.4639 363.598 30.8399 363.598 32.2479C363.598 34.1679 363.15 35.9919 362.254 37.7199C361.358 39.4479 360.126 40.8559 358.558 41.9439C356.99 43.0319 355.134 43.5759 352.99 43.5759H344.926V54.9999H338.302ZM344.926 37.7679H352.606C353.406 37.7679 354.126 37.5439 354.766 37.0959C355.406 36.6479 355.918 36.0079 356.302 35.1759C356.686 34.3119 356.878 33.3359 356.878 32.2479C356.878 31.0639 356.654 30.0559 356.206 29.2239C355.79 28.3919 355.23 27.7679 354.526 27.3519C353.854 26.9359 353.118 26.7279 352.318 26.7279H344.926V37.7679Z" fill="white"/>
<path d="M329.169 29.8479C328.945 29.6239 328.529 29.3199 327.921 28.9359C327.345 28.5519 326.624 28.1839 325.76 27.8319C324.928 27.4799 324.017 27.1759 323.025 26.9199C322.033 26.6319 321.025 26.4879 320.001 26.4879C318.209 26.4879 316.849 26.8239 315.921 27.4959C315.025 28.1679 314.577 29.1119 314.577 30.3279C314.577 31.2559 314.865 31.9919 315.441 32.5359C316.017 33.0799 316.881 33.5439 318.033 33.9279C319.185 34.3119 320.625 34.7279 322.353 35.1759C324.593 35.7199 326.529 36.3919 328.161 37.1919C329.825 37.9599 331.088 38.9839 331.952 40.2639C332.848 41.5119 333.296 43.1759 333.296 45.2559C333.296 47.0799 332.96 48.6479 332.288 49.9599C331.616 51.2399 330.689 52.2799 329.505 53.0799C328.321 53.8799 326.977 54.4719 325.473 54.8559C323.969 55.2079 322.369 55.3839 320.673 55.3839C318.977 55.3839 317.281 55.2079 315.585 54.8559C313.889 54.5039 312.257 54.0079 310.689 53.3679C309.121 52.6959 307.68 51.8959 306.368 50.9679L309.296 45.2559C309.584 45.5439 310.097 45.9279 310.833 46.4079C311.569 46.8559 312.465 47.3199 313.521 47.7999C314.577 48.2479 315.729 48.6319 316.977 48.9519C318.225 49.2719 319.488 49.4319 320.768 49.4319C322.56 49.4319 323.92 49.1279 324.848 48.5199C325.776 47.9119 326.24 47.0479 326.24 45.9279C326.24 44.9039 325.873 44.1039 325.137 43.5279C324.401 42.9519 323.376 42.4559 322.064 42.0399C320.752 41.5919 319.2 41.1119 317.408 40.5999C315.264 39.9919 313.473 39.3199 312.033 38.5839C310.593 37.8159 309.52 36.8559 308.816 35.7039C308.112 34.5519 307.76 33.1119 307.76 31.3839C307.76 29.0479 308.305 27.0959 309.393 25.5279C310.513 23.9279 312.016 22.7279 313.904 21.9279C315.792 21.0959 317.889 20.6799 320.193 20.6799C321.793 20.6799 323.296 20.8559 324.704 21.2079C326.144 21.5599 327.488 22.0239 328.736 22.5999C329.984 23.1759 331.104 23.7999 332.096 24.4719L329.169 29.8479Z" fill="white"/>
<path d="M303.7 49.1919V54.9999H280.036V20.9199H303.268V26.7279H286.66V34.9359H301.012V40.3119H286.66V49.1919H303.7Z" fill="white"/>
<path d="M248.115 54.9999V20.9199H263.186C264.754 20.9199 266.194 21.2399 267.507 21.8799C268.851 22.5199 270.002 23.3839 270.962 24.4719C271.954 25.5599 272.707 26.7759 273.219 28.1199C273.763 29.4639 274.035 30.8399 274.035 32.2479C274.035 33.6879 273.779 35.0799 273.267 36.4239C272.787 37.7359 272.082 38.8879 271.154 39.8799C270.226 40.8719 269.139 41.6399 267.891 42.1839L275.667 54.9999H268.37L261.363 43.5759H254.738V54.9999H248.115ZM254.738 37.7679H263.042C263.874 37.7679 264.611 37.5279 265.251 37.0479C265.891 36.5359 266.402 35.8639 266.786 35.0319C267.17 34.1999 267.363 33.2719 267.363 32.2479C267.363 31.1599 267.139 30.2159 266.691 29.4159C266.243 28.5839 265.666 27.9279 264.962 27.4479C264.29 26.9679 263.555 26.7279 262.755 26.7279H254.738V37.7679Z" fill="white"/>
<path d="M225.128 20.9199H231.848L244.376 54.9999H237.56L234.392 46.5039H222.488L219.368 54.9999H212.552L225.128 20.9199ZM233.192 41.8479L228.488 27.7839L223.592 41.8479H233.192Z" fill="white"/>
<path d="M195.672 55.2399C192.952 55.2399 190.632 54.7919 188.712 53.8959C186.824 52.9679 185.288 51.7039 184.104 50.1039C182.952 48.5039 182.104 46.6959 181.56 44.6799C181.016 42.6319 180.744 40.5039 180.744 38.2959V20.9199H187.368V38.2959C187.368 39.7039 187.496 41.0799 187.752 42.4239C188.04 43.7359 188.504 44.9199 189.144 45.9759C189.784 47.0319 190.632 47.8639 191.688 48.4719C192.744 49.0799 194.056 49.3839 195.624 49.3839C197.224 49.3839 198.552 49.0799 199.608 48.4719C200.696 47.8319 201.544 46.9839 202.152 45.9279C202.792 44.8719 203.256 43.6879 203.544 42.3759C203.832 41.0319 203.976 39.6719 203.976 38.2959V20.9199H210.552V38.2959C210.552 40.6319 210.264 42.8239 209.688 44.8719C209.144 46.9199 208.264 48.7279 207.048 50.2959C205.864 51.8319 204.328 53.0479 202.44 53.9439C200.552 54.8079 198.296 55.2399 195.672 55.2399Z" fill="white"/>
<path d="M159.534 55.2399C157.038 55.2399 154.766 54.7599 152.718 53.7999C150.702 52.8079 148.958 51.4959 147.486 49.8639C146.046 48.2319 144.926 46.3919 144.126 44.3439C143.326 42.2639 142.926 40.1359 142.926 37.9599C142.926 35.6879 143.342 33.5279 144.174 31.4799C145.038 29.3999 146.206 27.5599 147.678 25.9599C149.182 24.3279 150.942 23.0479 152.958 22.1199C155.006 21.1599 157.246 20.6799 159.678 20.6799C162.142 20.6799 164.382 21.1759 166.398 22.1679C168.446 23.1599 170.19 24.4879 171.63 26.1519C173.07 27.8159 174.19 29.6719 174.99 31.7199C175.79 33.7679 176.19 35.8799 176.19 38.0559C176.19 40.2959 175.774 42.4559 174.942 44.5359C174.11 46.5839 172.942 48.4239 171.438 50.0559C169.966 51.6559 168.206 52.9199 166.158 53.8479C164.142 54.7759 161.934 55.2399 159.534 55.2399ZM159.582 49.3839C161.182 49.3839 162.606 49.0639 163.854 48.4239C165.102 47.7519 166.142 46.8719 166.974 45.7839C167.806 44.6639 168.43 43.4319 168.846 42.0879C169.294 40.7119 169.518 39.3359 169.518 37.9599C169.518 36.4879 169.278 35.0639 168.798 33.6879C168.35 32.3119 167.694 31.0959 166.83 30.0399C165.998 28.9839 164.958 28.1359 163.71 27.4959C162.494 26.8559 161.118 26.5359 159.582 26.5359C157.95 26.5359 156.51 26.8719 155.262 27.5439C154.046 28.1839 153.022 29.0639 152.19 30.1839C151.358 31.2719 150.718 32.4879 150.27 33.8319C149.854 35.1759 149.646 36.5519 149.646 37.9599C149.646 39.4319 149.87 40.8559 150.318 42.2319C150.766 43.6079 151.406 44.8239 152.238 45.8799C153.102 46.9359 154.142 47.7839 155.358 48.4239C156.606 49.0639 158.014 49.3839 159.582 49.3839ZM158.91 42.3759H165.15L176.382 54.9999H170.142L158.91 42.3759Z" fill="white"/>
<path d="M135.856 29.8479C135.632 29.6239 135.216 29.3199 134.608 28.9359C134.032 28.5519 133.312 28.1839 132.448 27.8319C131.616 27.4799 130.704 27.1759 129.712 26.9199C128.72 26.6319 127.712 26.4879 126.688 26.4879C124.896 26.4879 123.536 26.8239 122.608 27.4959C121.712 28.1679 121.264 29.1119 121.264 30.3279C121.264 31.2559 121.552 31.9919 122.128 32.5359C122.704 33.0799 123.568 33.5439 124.72 33.9279C125.872 34.3119 127.312 34.7279 129.04 35.1759C131.28 35.7199 133.216 36.3919 134.848 37.1919C136.512 37.9599 137.776 38.9839 138.64 40.2639C139.536 41.5119 139.984 43.1759 139.984 45.2559C139.984 47.0799 139.648 48.6479 138.976 49.9599C138.304 51.2399 137.376 52.2799 136.192 53.0799C135.008 53.8799 133.664 54.4719 132.16 54.8559C130.656 55.2079 129.056 55.3839 127.36 55.3839C125.664 55.3839 123.968 55.2079 122.272 54.8559C120.576 54.5039 118.944 54.0079 117.376 53.3679C115.808 52.6959 114.368 51.8959 113.056 50.9679L115.984 45.2559C116.272 45.5439 116.784 45.9279 117.52 46.4079C118.256 46.8559 119.152 47.3199 120.208 47.7999C121.264 48.2479 122.416 48.6319 123.664 48.9519C124.912 49.2719 126.176 49.4319 127.456 49.4319C129.248 49.4319 130.608 49.1279 131.536 48.5199C132.464 47.9119 132.928 47.0479 132.928 45.9279C132.928 44.9039 132.56 44.1039 131.824 43.5279C131.088 42.9519 130.064 42.4559 128.752 42.0399C127.44 41.5919 125.888 41.1119 124.096 40.5999C121.952 39.9919 120.16 39.3199 118.72 38.5839C117.28 37.8159 116.208 36.8559 115.504 35.7039C114.8 34.5519 114.448 33.1119 114.448 31.3839C114.448 29.0479 114.992 27.0959 116.08 25.5279C117.2 23.9279 118.704 22.7279 120.592 21.9279C122.48 21.0959 124.576 20.6799 126.88 20.6799C128.48 20.6799 129.984 20.8559 131.392 21.2079C132.832 21.5599 134.176 22.0239 135.424 22.5999C136.672 23.1759 137.792 23.7999 138.784 24.4719L135.856 29.8479Z" fill="white"/>
</svg>
